<svg fill="white" xmlns="http://www.w3.org/2000/svg" viewBox="0 0 448 448">
   <path d="M224,40.376 C283.808,40.376 290.901333,40.6 314.533333,41.6826667 C375.237333,44.4453333 403.592,73.248 406.354667,133.504 C407.437333,157.117333 407.642667,164.210667 407.642667,224.018667 C407.642667,283.845333 407.418667,290.92 406.354667,314.533333 C403.573333,374.733333 375.293333,403.592 314.533333,406.354667 C290.901333,407.437333 283.845333,407.661333 224,407.661333 C164.192,407.661333 157.098667,407.437333 133.485333,406.354667 C72.632,403.573333 44.4266667,374.64 41.664,314.514667 C40.5813333,290.901333 40.3573333,283.826667 40.3573333,224 C40.3573333,164.192 40.6,157.117333 41.664,133.485333 C44.4453333,73.248 72.7253333,44.4266667 133.485333,41.664 C157.117333,40.6 164.192,40.376 224,40.376 L224,40.376 Z M224,-1.57772181e-30 C163.165333,-1.57772181e-30 155.549333,0.261333333 131.656,1.344 C50.3066667,5.07733333 5.096,50.2133333 1.36266667,131.637333 C0.261333333,155.549333 -9.06682137e-15,163.165333 -9.06682137e-15,224 C-9.06682137e-15,284.834667 0.261333333,292.469333 1.344,316.362667 C5.07733333,397.712 50.2133333,442.922667 131.637333,446.656 C155.549333,447.738667 163.165333,448 224,448 C284.834667,448 292.469333,447.738667 316.362667,446.656 C397.637333,442.922667 442.96,397.786667 446.637333,316.362667 C447.738667,292.469333 448,284.834667 448,224 C448,163.165333 447.738667,155.549333 446.656,131.656 C442.997333,50.3813333 397.805333,5.096 316.381333,1.36266667 C292.469333,0.261333333 284.834667,-9.06682137e-15 224,-9.06682137e-15 L224,-1.57772181e-30 Z M224,108.976 C160.477333,108.976 108.976,160.477333 108.976,224 C108.976,287.522667 160.477333,339.042667 224,339.042667 C287.522667,339.042667 339.024,287.541333 339.024,224 C339.024,160.477333 287.522667,108.976 224,108.976 Z M224,298.666667 C182.765333,298.666667 149.333333,265.253333 149.333333,224 C149.333333,182.765333 182.765333,149.333333 224,149.333333 C265.234667,149.333333 298.666667,182.765333 298.666667,224 C298.666667,265.253333 265.234667,298.666667 224,298.666667 Z M343.578667,77.56 C328.72,77.56 316.68,89.6 316.68,104.44 C316.68,119.28 328.72,131.32 343.578667,131.32 C358.418667,131.32 370.44,119.28 370.44,104.44 C370.44,89.6 358.418667,77.56 343.578667,77.56 Z" />
 </svg>
